<mxfile host="app.diagrams.net" agent="Mozilla/5.0 (X11; Linux x86_64) AppleWebKit/537.36 (KHTML, like Gecko) Chrome/138.0.0.0 Safari/537.36 OPR/122.0.0.0" version="28.2.8">
  <diagram name="PÃ¡gina-1" id="Nhd8CYgIMyzsmCHDjpIA">
    <mxGraphModel dx="3093" dy="2260" grid="1" gridSize="10" guides="1" tooltips="1" connect="1" arrows="1" fold="1" page="1" pageScale="1" pageWidth="827" pageHeight="1169" math="0" shadow="0">
      <root>
        <mxCell id="0" />
        <mxCell id="1" parent="0" />
        <mxCell id="RezQsv1CiJIYr9o7iqg_-226" value="Domain" style="shape=folder;fontStyle=1;spacingTop=10;tabWidth=40;tabHeight=14;tabPosition=left;html=1;whiteSpace=wrap;verticalAlign=top;" vertex="1" parent="1">
          <mxGeometry x="1290" y="1040" width="3420" height="910" as="geometry" />
        </mxCell>
        <mxCell id="zKRFpH8LsfMyVIRQmf_E-7" value="ControleInterno" style="swimlane;whiteSpace=wrap;html=1;" parent="1" vertex="1">
          <mxGeometry x="1210" y="880" width="1290" height="1160" as="geometry" />
        </mxCell>
        <mxCell id="zKRFpH8LsfMyVIRQmf_E-9" value="Entities" style="shape=folder;fontStyle=1;spacingTop=10;tabWidth=40;tabHeight=14;tabPosition=left;html=1;whiteSpace=wrap;align=center;verticalAlign=top;" parent="zKRFpH8LsfMyVIRQmf_E-7" vertex="1">
          <mxGeometry x="165" y="340" width="960" height="705" as="geometry" />
        </mxCell>
        <mxCell id="zKRFpH8LsfMyVIRQmf_E-39" style="edgeStyle=orthogonalEdgeStyle;rounded=0;orthogonalLoop=1;jettySize=auto;html=1;exitX=0.5;exitY=1;exitDx=0;exitDy=0;startArrow=block;startFill=0;endArrow=none;endFill=0;fillColor=#ffe6cc;strokeColor=#d79b00;" parent="zKRFpH8LsfMyVIRQmf_E-7" source="zKRFpH8LsfMyVIRQmf_E-22" target="zKRFpH8LsfMyVIRQmf_E-37" edge="1">
          <mxGeometry relative="1" as="geometry" />
        </mxCell>
        <mxCell id="zKRFpH8LsfMyVIRQmf_E-40" style="edgeStyle=orthogonalEdgeStyle;rounded=0;orthogonalLoop=1;jettySize=auto;html=1;exitX=0.5;exitY=1;exitDx=0;exitDy=0;entryX=0.5;entryY=0;entryDx=0;entryDy=0;startArrow=block;startFill=0;endArrow=none;endFill=0;fillColor=#ffe6cc;strokeColor=#d79b00;" parent="zKRFpH8LsfMyVIRQmf_E-7" source="zKRFpH8LsfMyVIRQmf_E-22" target="zKRFpH8LsfMyVIRQmf_E-33" edge="1">
          <mxGeometry relative="1" as="geometry" />
        </mxCell>
        <mxCell id="zKRFpH8LsfMyVIRQmf_E-41" style="edgeStyle=orthogonalEdgeStyle;rounded=0;orthogonalLoop=1;jettySize=auto;html=1;exitX=0.5;exitY=1;exitDx=0;exitDy=0;startArrow=block;startFill=0;endArrow=none;endFill=0;fillColor=#ffe6cc;strokeColor=#d79b00;" parent="zKRFpH8LsfMyVIRQmf_E-7" source="zKRFpH8LsfMyVIRQmf_E-22" target="zKRFpH8LsfMyVIRQmf_E-38" edge="1">
          <mxGeometry relative="1" as="geometry" />
        </mxCell>
        <mxCell id="zKRFpH8LsfMyVIRQmf_E-42" style="edgeStyle=orthogonalEdgeStyle;rounded=0;orthogonalLoop=1;jettySize=auto;html=1;exitX=0.5;exitY=1;exitDx=0;exitDy=0;startArrow=block;startFill=0;endArrow=none;endFill=0;fillColor=#ffe6cc;strokeColor=#d79b00;" parent="zKRFpH8LsfMyVIRQmf_E-7" source="zKRFpH8LsfMyVIRQmf_E-22" target="zKRFpH8LsfMyVIRQmf_E-36" edge="1">
          <mxGeometry relative="1" as="geometry" />
        </mxCell>
        <mxCell id="zKRFpH8LsfMyVIRQmf_E-22" value="Funcionario" style="swimlane;fontStyle=0;childLayout=stackLayout;horizontal=1;startSize=26;horizontalStack=0;resizeParent=1;resizeParentMax=0;resizeLast=0;collapsible=1;marginBottom=0;whiteSpace=wrap;html=1;fillColor=#ffe6cc;strokeColor=#d79b00;" parent="zKRFpH8LsfMyVIRQmf_E-7" vertex="1">
          <mxGeometry x="330" y="684" width="170" height="78" as="geometry">
            <mxRectangle x="329.25" y="409" width="100" height="30" as="alternateBounds" />
          </mxGeometry>
        </mxCell>
        <mxCell id="zKRFpH8LsfMyVIRQmf_E-24" value="+ dataAdmissao: Date" style="text;align=left;verticalAlign=top;spacingLeft=4;spacingRight=4;overflow=hidden;rotatable=0;points=[[0,0.5],[1,0.5]];portConstraint=eastwest;whiteSpace=wrap;html=1;fillColor=#ffe6cc;strokeColor=#d79b00;" parent="zKRFpH8LsfMyVIRQmf_E-22" vertex="1">
          <mxGeometry y="26" width="170" height="26" as="geometry" />
        </mxCell>
        <mxCell id="zKRFpH8LsfMyVIRQmf_E-25" value="+ dataDemissao: Date" style="text;align=left;verticalAlign=top;spacingLeft=4;spacingRight=4;overflow=hidden;rotatable=0;points=[[0,0.5],[1,0.5]];portConstraint=eastwest;whiteSpace=wrap;html=1;fillColor=#ffe6cc;strokeColor=#d79b00;" parent="zKRFpH8LsfMyVIRQmf_E-22" vertex="1">
          <mxGeometry y="52" width="170" height="26" as="geometry" />
        </mxCell>
        <mxCell id="zKRFpH8LsfMyVIRQmf_E-33" value="Veterinario" style="swimlane;fontStyle=0;childLayout=stackLayout;horizontal=1;startSize=26;horizontalStack=0;resizeParent=1;resizeParentMax=0;resizeLast=0;collapsible=1;marginBottom=0;whiteSpace=wrap;html=1;fillColor=#ffe6cc;strokeColor=#d79b00;" parent="zKRFpH8LsfMyVIRQmf_E-7" vertex="1">
          <mxGeometry x="305" y="967.5" width="100" height="50" as="geometry" />
        </mxCell>
        <mxCell id="zKRFpH8LsfMyVIRQmf_E-36" value="BanhistaTosador" style="swimlane;fontStyle=0;childLayout=stackLayout;horizontal=1;startSize=26;horizontalStack=0;resizeParent=1;resizeParentMax=0;resizeLast=0;collapsible=1;marginBottom=0;whiteSpace=wrap;html=1;fillColor=#ffe6cc;strokeColor=#d79b00;" parent="zKRFpH8LsfMyVIRQmf_E-7" vertex="1">
          <mxGeometry x="425" y="967.5" width="100" height="50" as="geometry" />
        </mxCell>
        <mxCell id="zKRFpH8LsfMyVIRQmf_E-37" value="Gerente" style="swimlane;fontStyle=0;childLayout=stackLayout;horizontal=1;startSize=26;horizontalStack=0;resizeParent=1;resizeParentMax=0;resizeLast=0;collapsible=1;marginBottom=0;whiteSpace=wrap;html=1;fillColor=#ffe6cc;strokeColor=#d79b00;" parent="zKRFpH8LsfMyVIRQmf_E-7" vertex="1">
          <mxGeometry x="185" y="967.5" width="100" height="50" as="geometry" />
        </mxCell>
        <mxCell id="zKRFpH8LsfMyVIRQmf_E-38" value="Vendedor" style="swimlane;fontStyle=0;childLayout=stackLayout;horizontal=1;startSize=26;horizontalStack=0;resizeParent=1;resizeParentMax=0;resizeLast=0;collapsible=1;marginBottom=0;whiteSpace=wrap;html=1;fillColor=#ffe6cc;strokeColor=#d79b00;" parent="zKRFpH8LsfMyVIRQmf_E-7" vertex="1">
          <mxGeometry x="545" y="967.5" width="100" height="50" as="geometry" />
        </mxCell>
        <mxCell id="RezQsv1CiJIYr9o7iqg_-2" style="edgeStyle=orthogonalEdgeStyle;rounded=0;orthogonalLoop=1;jettySize=auto;html=1;exitX=0;exitY=0.5;exitDx=0;exitDy=0;entryX=1;entryY=0.5;entryDx=0;entryDy=0;endArrow=none;endFill=0;" edge="1" parent="zKRFpH8LsfMyVIRQmf_E-7" source="zKRFpH8LsfMyVIRQmf_E-46" target="zKRFpH8LsfMyVIRQmf_E-22">
          <mxGeometry relative="1" as="geometry" />
        </mxCell>
        <mxCell id="RezQsv1CiJIYr9o7iqg_-3" value="*:1" style="edgeLabel;html=1;align=center;verticalAlign=middle;resizable=0;points=[];" vertex="1" connectable="0" parent="RezQsv1CiJIYr9o7iqg_-2">
          <mxGeometry x="-0.2015" y="-1" relative="1" as="geometry">
            <mxPoint x="-25" y="14" as="offset" />
          </mxGeometry>
        </mxCell>
        <mxCell id="zKRFpH8LsfMyVIRQmf_E-46" value="Filial" style="swimlane;fontStyle=0;childLayout=stackLayout;horizontal=1;startSize=26;horizontalStack=0;resizeParent=1;resizeParentMax=0;resizeLast=0;collapsible=1;marginBottom=0;whiteSpace=wrap;html=1;fillColor=#ffe6cc;strokeColor=#d79b00;" parent="zKRFpH8LsfMyVIRQmf_E-7" vertex="1">
          <mxGeometry x="725" y="632" width="170" height="182" as="geometry">
            <mxRectangle x="724.25" y="285" width="100" height="30" as="alternateBounds" />
          </mxGeometry>
        </mxCell>
        <mxCell id="zKRFpH8LsfMyVIRQmf_E-47" value="+ nome: String" style="text;align=left;verticalAlign=top;spacingLeft=4;spacingRight=4;overflow=hidden;rotatable=0;points=[[0,0.5],[1,0.5]];portConstraint=eastwest;whiteSpace=wrap;html=1;fillColor=#ffe6cc;strokeColor=#d79b00;" parent="zKRFpH8LsfMyVIRQmf_E-46" vertex="1">
          <mxGeometry y="26" width="170" height="26" as="geometry" />
        </mxCell>
        <mxCell id="zKRFpH8LsfMyVIRQmf_E-66" value="+ cnpj: String" style="text;align=left;verticalAlign=top;spacingLeft=4;spacingRight=4;overflow=hidden;rotatable=0;points=[[0,0.5],[1,0.5]];portConstraint=eastwest;whiteSpace=wrap;html=1;fillColor=#ffe6cc;strokeColor=#d79b00;" parent="zKRFpH8LsfMyVIRQmf_E-46" vertex="1">
          <mxGeometry y="52" width="170" height="26" as="geometry" />
        </mxCell>
        <mxCell id="zKRFpH8LsfMyVIRQmf_E-70" value="+ disponivel: Boolean" style="text;align=left;verticalAlign=top;spacingLeft=4;spacingRight=4;overflow=hidden;rotatable=0;points=[[0,0.5],[1,0.5]];portConstraint=eastwest;whiteSpace=wrap;html=1;fillColor=#ffe6cc;strokeColor=#d79b00;" parent="zKRFpH8LsfMyVIRQmf_E-46" vertex="1">
          <mxGeometry y="78" width="170" height="26" as="geometry" />
        </mxCell>
        <mxCell id="zKRFpH8LsfMyVIRQmf_E-65" value="+ endereco: String" style="text;align=left;verticalAlign=top;spacingLeft=4;spacingRight=4;overflow=hidden;rotatable=0;points=[[0,0.5],[1,0.5]];portConstraint=eastwest;whiteSpace=wrap;html=1;fillColor=#ffe6cc;strokeColor=#d79b00;" parent="zKRFpH8LsfMyVIRQmf_E-46" vertex="1">
          <mxGeometry y="104" width="170" height="26" as="geometry" />
        </mxCell>
        <mxCell id="zKRFpH8LsfMyVIRQmf_E-64" value="+ email: String" style="text;align=left;verticalAlign=top;spacingLeft=4;spacingRight=4;overflow=hidden;rotatable=0;points=[[0,0.5],[1,0.5]];portConstraint=eastwest;whiteSpace=wrap;html=1;fillColor=#ffe6cc;strokeColor=#d79b00;" parent="zKRFpH8LsfMyVIRQmf_E-46" vertex="1">
          <mxGeometry y="130" width="170" height="26" as="geometry" />
        </mxCell>
        <mxCell id="zKRFpH8LsfMyVIRQmf_E-48" value="+ telefone: String" style="text;align=left;verticalAlign=top;spacingLeft=4;spacingRight=4;overflow=hidden;rotatable=0;points=[[0,0.5],[1,0.5]];portConstraint=eastwest;whiteSpace=wrap;html=1;fillColor=#ffe6cc;strokeColor=#d79b00;" parent="zKRFpH8LsfMyVIRQmf_E-46" vertex="1">
          <mxGeometry y="156" width="170" height="26" as="geometry" />
        </mxCell>
        <mxCell id="RezQsv1CiJIYr9o7iqg_-8" style="edgeStyle=orthogonalEdgeStyle;rounded=0;orthogonalLoop=1;jettySize=auto;html=1;exitX=1;exitY=0.5;exitDx=0;exitDy=0;entryX=0.5;entryY=0;entryDx=0;entryDy=0;endArrow=none;endFill=0;" edge="1" parent="zKRFpH8LsfMyVIRQmf_E-7" source="zKRFpH8LsfMyVIRQmf_E-49" target="zKRFpH8LsfMyVIRQmf_E-58">
          <mxGeometry relative="1" as="geometry" />
        </mxCell>
        <mxCell id="RezQsv1CiJIYr9o7iqg_-13" value="1:*" style="edgeLabel;html=1;align=center;verticalAlign=middle;resizable=0;points=[];" vertex="1" connectable="0" parent="RezQsv1CiJIYr9o7iqg_-8">
          <mxGeometry x="0.0139" y="-2" relative="1" as="geometry">
            <mxPoint x="-5" y="-2" as="offset" />
          </mxGeometry>
        </mxCell>
        <mxCell id="RezQsv1CiJIYr9o7iqg_-9" style="edgeStyle=orthogonalEdgeStyle;rounded=0;orthogonalLoop=1;jettySize=auto;html=1;exitX=0;exitY=1;exitDx=0;exitDy=0;entryX=0.5;entryY=0;entryDx=0;entryDy=0;endArrow=none;endFill=0;" edge="1" parent="zKRFpH8LsfMyVIRQmf_E-7" source="zKRFpH8LsfMyVIRQmf_E-49" target="zKRFpH8LsfMyVIRQmf_E-46">
          <mxGeometry relative="1" as="geometry" />
        </mxCell>
        <mxCell id="RezQsv1CiJIYr9o7iqg_-12" value="*:1" style="edgeLabel;html=1;align=center;verticalAlign=middle;resizable=0;points=[];" vertex="1" connectable="0" parent="RezQsv1CiJIYr9o7iqg_-9">
          <mxGeometry x="-0.0669" y="-1" relative="1" as="geometry">
            <mxPoint as="offset" />
          </mxGeometry>
        </mxCell>
        <mxCell id="RezQsv1CiJIYr9o7iqg_-209" style="edgeStyle=orthogonalEdgeStyle;rounded=0;orthogonalLoop=1;jettySize=auto;html=1;exitX=0;exitY=0.5;exitDx=0;exitDy=0;entryX=1;entryY=0;entryDx=0;entryDy=0;endArrow=none;endFill=0;" edge="1" parent="zKRFpH8LsfMyVIRQmf_E-7" source="zKRFpH8LsfMyVIRQmf_E-49" target="zKRFpH8LsfMyVIRQmf_E-38">
          <mxGeometry relative="1" as="geometry">
            <Array as="points">
              <mxPoint x="645" y="458" />
            </Array>
          </mxGeometry>
        </mxCell>
        <mxCell id="RezQsv1CiJIYr9o7iqg_-233" value="0...1:1" style="edgeLabel;html=1;align=center;verticalAlign=middle;resizable=0;points=[];" vertex="1" connectable="0" parent="RezQsv1CiJIYr9o7iqg_-209">
          <mxGeometry x="-0.8662" y="-3" relative="1" as="geometry">
            <mxPoint x="-6" y="-10" as="offset" />
          </mxGeometry>
        </mxCell>
        <mxCell id="zKRFpH8LsfMyVIRQmf_E-49" value="Produto" style="swimlane;fontStyle=0;childLayout=stackLayout;horizontal=1;startSize=26;horizontalStack=0;resizeParent=1;resizeParentMax=0;resizeLast=0;collapsible=1;marginBottom=0;whiteSpace=wrap;html=1;fillColor=#ffe6cc;strokeColor=#d79b00;" parent="zKRFpH8LsfMyVIRQmf_E-7" vertex="1">
          <mxGeometry x="725" y="380" width="170" height="156" as="geometry">
            <mxRectangle x="724.25" y="92.5" width="100" height="30" as="alternateBounds" />
          </mxGeometry>
        </mxCell>
        <mxCell id="zKRFpH8LsfMyVIRQmf_E-50" value="+ nome: String" style="text;align=left;verticalAlign=top;spacingLeft=4;spacingRight=4;overflow=hidden;rotatable=0;points=[[0,0.5],[1,0.5]];portConstraint=eastwest;whiteSpace=wrap;html=1;fillColor=#ffe6cc;strokeColor=#d79b00;" parent="zKRFpH8LsfMyVIRQmf_E-49" vertex="1">
          <mxGeometry y="26" width="170" height="26" as="geometry" />
        </mxCell>
        <mxCell id="zKRFpH8LsfMyVIRQmf_E-67" value="+ codigo: String" style="text;align=left;verticalAlign=top;spacingLeft=4;spacingRight=4;overflow=hidden;rotatable=0;points=[[0,0.5],[1,0.5]];portConstraint=eastwest;whiteSpace=wrap;html=1;fillColor=#ffe6cc;strokeColor=#d79b00;" parent="zKRFpH8LsfMyVIRQmf_E-49" vertex="1">
          <mxGeometry y="52" width="170" height="26" as="geometry" />
        </mxCell>
        <mxCell id="zKRFpH8LsfMyVIRQmf_E-79" value="+ quantidadeEstoque: Int" style="text;align=left;verticalAlign=top;spacingLeft=4;spacingRight=4;overflow=hidden;rotatable=0;points=[[0,0.5],[1,0.5]];portConstraint=eastwest;whiteSpace=wrap;html=1;fillColor=#ffe6cc;strokeColor=#d79b00;" parent="zKRFpH8LsfMyVIRQmf_E-49" vertex="1">
          <mxGeometry y="78" width="170" height="26" as="geometry" />
        </mxCell>
        <mxCell id="zKRFpH8LsfMyVIRQmf_E-68" value="+ descricao: String" style="text;align=left;verticalAlign=top;spacingLeft=4;spacingRight=4;overflow=hidden;rotatable=0;points=[[0,0.5],[1,0.5]];portConstraint=eastwest;whiteSpace=wrap;html=1;fillColor=#ffe6cc;strokeColor=#d79b00;" parent="zKRFpH8LsfMyVIRQmf_E-49" vertex="1">
          <mxGeometry y="104" width="170" height="26" as="geometry" />
        </mxCell>
        <mxCell id="zKRFpH8LsfMyVIRQmf_E-69" value="+ Linkmagem: String" style="text;align=left;verticalAlign=top;spacingLeft=4;spacingRight=4;overflow=hidden;rotatable=0;points=[[0,0.5],[1,0.5]];portConstraint=eastwest;whiteSpace=wrap;html=1;fillColor=#ffe6cc;strokeColor=#d79b00;" parent="zKRFpH8LsfMyVIRQmf_E-49" vertex="1">
          <mxGeometry y="130" width="170" height="26" as="geometry" />
        </mxCell>
        <mxCell id="zKRFpH8LsfMyVIRQmf_E-58" value="PrecoProduto" style="swimlane;fontStyle=0;childLayout=stackLayout;horizontal=1;startSize=26;horizontalStack=0;resizeParent=1;resizeParentMax=0;resizeLast=0;collapsible=1;marginBottom=0;whiteSpace=wrap;html=1;fillColor=#ffe6cc;strokeColor=#d79b00;" parent="zKRFpH8LsfMyVIRQmf_E-7" vertex="1">
          <mxGeometry x="925" y="485" width="170" height="78" as="geometry">
            <mxRectangle x="924.25" y="202" width="100" height="30" as="alternateBounds" />
          </mxGeometry>
        </mxCell>
        <mxCell id="zKRFpH8LsfMyVIRQmf_E-59" value="+ preco: Float" style="text;align=left;verticalAlign=top;spacingLeft=4;spacingRight=4;overflow=hidden;rotatable=0;points=[[0,0.5],[1,0.5]];portConstraint=eastwest;whiteSpace=wrap;html=1;fillColor=#ffe6cc;strokeColor=#d79b00;" parent="zKRFpH8LsfMyVIRQmf_E-58" vertex="1">
          <mxGeometry y="26" width="170" height="26" as="geometry" />
        </mxCell>
        <mxCell id="zKRFpH8LsfMyVIRQmf_E-60" value="+ data: Date" style="text;align=left;verticalAlign=top;spacingLeft=4;spacingRight=4;overflow=hidden;rotatable=0;points=[[0,0.5],[1,0.5]];portConstraint=eastwest;whiteSpace=wrap;html=1;fillColor=#ffe6cc;strokeColor=#d79b00;" parent="zKRFpH8LsfMyVIRQmf_E-58" vertex="1">
          <mxGeometry y="52" width="170" height="26" as="geometry" />
        </mxCell>
        <mxCell id="RezQsv1CiJIYr9o7iqg_-6" style="edgeStyle=orthogonalEdgeStyle;rounded=0;orthogonalLoop=1;jettySize=auto;html=1;exitX=0;exitY=0;exitDx=0;exitDy=0;entryX=0.5;entryY=1;entryDx=0;entryDy=0;endArrow=none;endFill=0;" edge="1" parent="zKRFpH8LsfMyVIRQmf_E-7" source="zKRFpH8LsfMyVIRQmf_E-71" target="zKRFpH8LsfMyVIRQmf_E-46">
          <mxGeometry relative="1" as="geometry" />
        </mxCell>
        <mxCell id="RezQsv1CiJIYr9o7iqg_-11" value="*:1" style="edgeLabel;html=1;align=center;verticalAlign=middle;resizable=0;points=[];" vertex="1" connectable="0" parent="RezQsv1CiJIYr9o7iqg_-6">
          <mxGeometry x="0.1317" y="-3" relative="1" as="geometry">
            <mxPoint x="-16" as="offset" />
          </mxGeometry>
        </mxCell>
        <mxCell id="RezQsv1CiJIYr9o7iqg_-7" style="edgeStyle=orthogonalEdgeStyle;rounded=0;orthogonalLoop=1;jettySize=auto;html=1;exitX=1;exitY=0.5;exitDx=0;exitDy=0;entryX=0.5;entryY=1;entryDx=0;entryDy=0;endArrow=none;endFill=0;" edge="1" parent="zKRFpH8LsfMyVIRQmf_E-7" source="zKRFpH8LsfMyVIRQmf_E-71" target="zKRFpH8LsfMyVIRQmf_E-76">
          <mxGeometry relative="1" as="geometry" />
        </mxCell>
        <mxCell id="RezQsv1CiJIYr9o7iqg_-14" value="1:*" style="edgeLabel;html=1;align=center;verticalAlign=middle;resizable=0;points=[];" vertex="1" connectable="0" parent="RezQsv1CiJIYr9o7iqg_-7">
          <mxGeometry x="-0.5882" y="-1" relative="1" as="geometry">
            <mxPoint x="5" y="-1" as="offset" />
          </mxGeometry>
        </mxCell>
        <mxCell id="RezQsv1CiJIYr9o7iqg_-207" style="edgeStyle=orthogonalEdgeStyle;rounded=0;orthogonalLoop=1;jettySize=auto;html=1;exitX=0.5;exitY=1;exitDx=0;exitDy=0;entryX=1;entryY=1;entryDx=0;entryDy=0;endArrow=none;endFill=0;" edge="1" parent="zKRFpH8LsfMyVIRQmf_E-7" source="zKRFpH8LsfMyVIRQmf_E-71" target="zKRFpH8LsfMyVIRQmf_E-22">
          <mxGeometry relative="1" as="geometry">
            <Array as="points">
              <mxPoint x="775" y="937" />
              <mxPoint x="680" y="937" />
              <mxPoint x="680" y="762" />
            </Array>
          </mxGeometry>
        </mxCell>
        <mxCell id="RezQsv1CiJIYr9o7iqg_-208" value="*:*" style="edgeLabel;html=1;align=center;verticalAlign=middle;resizable=0;points=[];" vertex="1" connectable="0" parent="RezQsv1CiJIYr9o7iqg_-207">
          <mxGeometry x="-0.1368" y="1" relative="1" as="geometry">
            <mxPoint y="-52" as="offset" />
          </mxGeometry>
        </mxCell>
        <mxCell id="zKRFpH8LsfMyVIRQmf_E-71" value="Servico" style="swimlane;fontStyle=0;childLayout=stackLayout;horizontal=1;startSize=26;horizontalStack=0;resizeParent=1;resizeParentMax=0;resizeLast=0;collapsible=1;marginBottom=0;whiteSpace=wrap;html=1;fillColor=#ffe6cc;strokeColor=#d79b00;" parent="zKRFpH8LsfMyVIRQmf_E-7" vertex="1">
          <mxGeometry x="725" y="887.5" width="170" height="130" as="geometry">
            <mxRectangle x="725" y="887.5" width="100" height="30" as="alternateBounds" />
          </mxGeometry>
        </mxCell>
        <mxCell id="zKRFpH8LsfMyVIRQmf_E-72" value="+ nome: String" style="text;align=left;verticalAlign=top;spacingLeft=4;spacingRight=4;overflow=hidden;rotatable=0;points=[[0,0.5],[1,0.5]];portConstraint=eastwest;whiteSpace=wrap;html=1;fillColor=#ffe6cc;strokeColor=#d79b00;" parent="zKRFpH8LsfMyVIRQmf_E-71" vertex="1">
          <mxGeometry y="26" width="170" height="26" as="geometry" />
        </mxCell>
        <mxCell id="zKRFpH8LsfMyVIRQmf_E-73" value="+ codigo: String" style="text;align=left;verticalAlign=top;spacingLeft=4;spacingRight=4;overflow=hidden;rotatable=0;points=[[0,0.5],[1,0.5]];portConstraint=eastwest;whiteSpace=wrap;html=1;fillColor=#ffe6cc;strokeColor=#d79b00;" parent="zKRFpH8LsfMyVIRQmf_E-71" vertex="1">
          <mxGeometry y="52" width="170" height="26" as="geometry" />
        </mxCell>
        <mxCell id="zKRFpH8LsfMyVIRQmf_E-74" value="+ descricao: String" style="text;align=left;verticalAlign=top;spacingLeft=4;spacingRight=4;overflow=hidden;rotatable=0;points=[[0,0.5],[1,0.5]];portConstraint=eastwest;whiteSpace=wrap;html=1;fillColor=#ffe6cc;strokeColor=#d79b00;" parent="zKRFpH8LsfMyVIRQmf_E-71" vertex="1">
          <mxGeometry y="78" width="170" height="26" as="geometry" />
        </mxCell>
        <mxCell id="zKRFpH8LsfMyVIRQmf_E-75" value="+ Linkmagem: String" style="text;align=left;verticalAlign=top;spacingLeft=4;spacingRight=4;overflow=hidden;rotatable=0;points=[[0,0.5],[1,0.5]];portConstraint=eastwest;whiteSpace=wrap;html=1;fillColor=#ffe6cc;strokeColor=#d79b00;" parent="zKRFpH8LsfMyVIRQmf_E-71" vertex="1">
          <mxGeometry y="104" width="170" height="26" as="geometry" />
        </mxCell>
        <mxCell id="zKRFpH8LsfMyVIRQmf_E-76" value="PrecoServico" style="swimlane;fontStyle=0;childLayout=stackLayout;horizontal=1;startSize=26;horizontalStack=0;resizeParent=1;resizeParentMax=0;resizeLast=0;collapsible=1;marginBottom=0;whiteSpace=wrap;html=1;fillColor=#ffe6cc;strokeColor=#d79b00;" parent="zKRFpH8LsfMyVIRQmf_E-7" vertex="1">
          <mxGeometry x="925" y="638" width="170" height="130" as="geometry">
            <mxRectangle x="924.25" y="363" width="100" height="30" as="alternateBounds" />
          </mxGeometry>
        </mxCell>
        <mxCell id="zKRFpH8LsfMyVIRQmf_E-77" value="+ preco: Float" style="text;align=left;verticalAlign=top;spacingLeft=4;spacingRight=4;overflow=hidden;rotatable=0;points=[[0,0.5],[1,0.5]];portConstraint=eastwest;whiteSpace=wrap;html=1;fillColor=#ffe6cc;strokeColor=#d79b00;" parent="zKRFpH8LsfMyVIRQmf_E-76" vertex="1">
          <mxGeometry y="26" width="170" height="26" as="geometry" />
        </mxCell>
        <mxCell id="zKRFpH8LsfMyVIRQmf_E-81" value="+ data: Date" style="text;align=left;verticalAlign=top;spacingLeft=4;spacingRight=4;overflow=hidden;rotatable=0;points=[[0,0.5],[1,0.5]];portConstraint=eastwest;whiteSpace=wrap;html=1;fillColor=#ffe6cc;strokeColor=#d79b00;" parent="zKRFpH8LsfMyVIRQmf_E-76" vertex="1">
          <mxGeometry y="52" width="170" height="26" as="geometry" />
        </mxCell>
        <mxCell id="zKRFpH8LsfMyVIRQmf_E-80" value="+ tipoAnimal: TipoAnimal" style="text;align=left;verticalAlign=top;spacingLeft=4;spacingRight=4;overflow=hidden;rotatable=0;points=[[0,0.5],[1,0.5]];portConstraint=eastwest;whiteSpace=wrap;html=1;fillColor=#ffe6cc;strokeColor=#d79b00;" parent="zKRFpH8LsfMyVIRQmf_E-76" vertex="1">
          <mxGeometry y="78" width="170" height="26" as="geometry" />
        </mxCell>
        <mxCell id="zKRFpH8LsfMyVIRQmf_E-78" value="+ porteAnimal: PorteAnimal" style="text;align=left;verticalAlign=top;spacingLeft=4;spacingRight=4;overflow=hidden;rotatable=0;points=[[0,0.5],[1,0.5]];portConstraint=eastwest;whiteSpace=wrap;html=1;fillColor=#ffe6cc;strokeColor=#d79b00;" parent="zKRFpH8LsfMyVIRQmf_E-76" vertex="1">
          <mxGeometry y="104" width="170" height="26" as="geometry" />
        </mxCell>
        <mxCell id="RezQsv1CiJIYr9o7iqg_-130" value="AtendimentoCliente" style="swimlane;whiteSpace=wrap;html=1;" vertex="1" parent="1">
          <mxGeometry x="3490" y="880" width="1290" height="1160" as="geometry" />
        </mxCell>
        <mxCell id="RezQsv1CiJIYr9o7iqg_-131" value="Entities" style="shape=folder;fontStyle=1;spacingTop=10;tabWidth=40;tabHeight=14;tabPosition=left;html=1;whiteSpace=wrap;align=center;verticalAlign=top;" vertex="1" parent="RezQsv1CiJIYr9o7iqg_-130">
          <mxGeometry x="165" y="340" width="960" height="705" as="geometry" />
        </mxCell>
        <mxCell id="RezQsv1CiJIYr9o7iqg_-230" style="edgeStyle=orthogonalEdgeStyle;rounded=0;orthogonalLoop=1;jettySize=auto;html=1;exitX=0;exitY=0;exitDx=0;exitDy=0;entryX=1;entryY=0;entryDx=0;entryDy=0;endArrow=none;endFill=0;" edge="1" parent="RezQsv1CiJIYr9o7iqg_-130" source="RezQsv1CiJIYr9o7iqg_-200" target="RezQsv1CiJIYr9o7iqg_-203">
          <mxGeometry relative="1" as="geometry">
            <Array as="points">
              <mxPoint x="810" y="432" />
              <mxPoint x="436" y="432" />
            </Array>
          </mxGeometry>
        </mxCell>
        <mxCell id="RezQsv1CiJIYr9o7iqg_-241" value="1:*" style="edgeLabel;html=1;align=center;verticalAlign=middle;resizable=0;points=[];" vertex="1" connectable="0" parent="RezQsv1CiJIYr9o7iqg_-230">
          <mxGeometry x="-0.0727" y="-1" relative="1" as="geometry">
            <mxPoint x="-14" y="-12" as="offset" />
          </mxGeometry>
        </mxCell>
        <mxCell id="RezQsv1CiJIYr9o7iqg_-200" value="Animal" style="swimlane;fontStyle=0;childLayout=stackLayout;horizontal=1;startSize=26;horizontalStack=0;resizeParent=1;resizeParentMax=0;resizeLast=0;collapsible=1;marginBottom=0;whiteSpace=wrap;html=1;fillColor=#f8cecc;strokeColor=#b85450;" vertex="1" parent="RezQsv1CiJIYr9o7iqg_-130">
          <mxGeometry x="810" y="488.5" width="170" height="78" as="geometry">
            <mxRectangle x="329.25" y="409" width="100" height="30" as="alternateBounds" />
          </mxGeometry>
        </mxCell>
        <mxCell id="RezQsv1CiJIYr9o7iqg_-201" value="+ dataAdmissao: Date" style="text;align=left;verticalAlign=top;spacingLeft=4;spacingRight=4;overflow=hidden;rotatable=0;points=[[0,0.5],[1,0.5]];portConstraint=eastwest;whiteSpace=wrap;html=1;fillColor=#f8cecc;strokeColor=#b85450;" vertex="1" parent="RezQsv1CiJIYr9o7iqg_-200">
          <mxGeometry y="26" width="170" height="26" as="geometry" />
        </mxCell>
        <mxCell id="RezQsv1CiJIYr9o7iqg_-202" value="+ dataDemissao: Date" style="text;align=left;verticalAlign=top;spacingLeft=4;spacingRight=4;overflow=hidden;rotatable=0;points=[[0,0.5],[1,0.5]];portConstraint=eastwest;whiteSpace=wrap;html=1;fillColor=#f8cecc;strokeColor=#b85450;" vertex="1" parent="RezQsv1CiJIYr9o7iqg_-200">
          <mxGeometry y="52" width="170" height="26" as="geometry" />
        </mxCell>
        <mxCell id="RezQsv1CiJIYr9o7iqg_-203" value="Cliente" style="swimlane;fontStyle=0;childLayout=stackLayout;horizontal=1;startSize=26;horizontalStack=0;resizeParent=1;resizeParentMax=0;resizeLast=0;collapsible=1;marginBottom=0;whiteSpace=wrap;html=1;fillColor=#f8cecc;strokeColor=#b85450;" vertex="1" parent="RezQsv1CiJIYr9o7iqg_-130">
          <mxGeometry x="266" y="501.5" width="170" height="52" as="geometry">
            <mxRectangle x="329.25" y="409" width="100" height="30" as="alternateBounds" />
          </mxGeometry>
        </mxCell>
        <mxCell id="RezQsv1CiJIYr9o7iqg_-197" value="Venda" style="swimlane;fontStyle=0;childLayout=stackLayout;horizontal=1;startSize=26;horizontalStack=0;resizeParent=1;resizeParentMax=0;resizeLast=0;collapsible=1;marginBottom=0;whiteSpace=wrap;html=1;fillColor=#f8cecc;strokeColor=#b85450;" vertex="1" parent="RezQsv1CiJIYr9o7iqg_-130">
          <mxGeometry x="503" y="873" width="236" height="104" as="geometry">
            <mxRectangle x="500" y="874" width="100" height="30" as="alternateBounds" />
          </mxGeometry>
        </mxCell>
        <mxCell id="RezQsv1CiJIYr9o7iqg_-198" value="+ data: Date" style="text;align=left;verticalAlign=top;spacingLeft=4;spacingRight=4;overflow=hidden;rotatable=0;points=[[0,0.5],[1,0.5]];portConstraint=eastwest;whiteSpace=wrap;html=1;fillColor=#f8cecc;strokeColor=#b85450;" vertex="1" parent="RezQsv1CiJIYr9o7iqg_-197">
          <mxGeometry y="26" width="236" height="26" as="geometry" />
        </mxCell>
        <mxCell id="RezQsv1CiJIYr9o7iqg_-236" value="+ valor: Float" style="text;align=left;verticalAlign=top;spacingLeft=4;spacingRight=4;overflow=hidden;rotatable=0;points=[[0,0.5],[1,0.5]];portConstraint=eastwest;whiteSpace=wrap;html=1;fillColor=#f8cecc;strokeColor=#b85450;" vertex="1" parent="RezQsv1CiJIYr9o7iqg_-197">
          <mxGeometry y="52" width="236" height="26" as="geometry" />
        </mxCell>
        <mxCell id="RezQsv1CiJIYr9o7iqg_-199" value="+ metodoPagamento: MetodoPagamento" style="text;align=left;verticalAlign=top;spacingLeft=4;spacingRight=4;overflow=hidden;rotatable=0;points=[[0,0.5],[1,0.5]];portConstraint=eastwest;whiteSpace=wrap;html=1;fillColor=#f8cecc;strokeColor=#b85450;" vertex="1" parent="RezQsv1CiJIYr9o7iqg_-197">
          <mxGeometry y="78" width="236" height="26" as="geometry" />
        </mxCell>
        <mxCell id="RezQsv1CiJIYr9o7iqg_-191" value="Agendamento" style="swimlane;fontStyle=0;childLayout=stackLayout;horizontal=1;startSize=26;horizontalStack=0;resizeParent=1;resizeParentMax=0;resizeLast=0;collapsible=1;marginBottom=0;whiteSpace=wrap;html=1;fillColor=#f8cecc;strokeColor=#b85450;" vertex="1" parent="RezQsv1CiJIYr9o7iqg_-130">
          <mxGeometry x="491" y="621.5" width="260" height="130" as="geometry">
            <mxRectangle x="491" y="621.5" width="100" height="30" as="alternateBounds" />
          </mxGeometry>
        </mxCell>
        <mxCell id="RezQsv1CiJIYr9o7iqg_-234" value="+ dataAgendamento: Date" style="text;align=left;verticalAlign=top;spacingLeft=4;spacingRight=4;overflow=hidden;rotatable=0;points=[[0,0.5],[1,0.5]];portConstraint=eastwest;whiteSpace=wrap;html=1;fillColor=#f8cecc;strokeColor=#b85450;" vertex="1" parent="RezQsv1CiJIYr9o7iqg_-191">
          <mxGeometry y="26" width="260" height="26" as="geometry" />
        </mxCell>
        <mxCell id="RezQsv1CiJIYr9o7iqg_-235" value="+ statusAgendamento: StatusAgendamento" style="text;align=left;verticalAlign=top;spacingLeft=4;spacingRight=4;overflow=hidden;rotatable=0;points=[[0,0.5],[1,0.5]];portConstraint=eastwest;whiteSpace=wrap;html=1;fillColor=#f8cecc;strokeColor=#b85450;" vertex="1" parent="RezQsv1CiJIYr9o7iqg_-191">
          <mxGeometry y="52" width="260" height="26" as="geometry" />
        </mxCell>
        <mxCell id="RezQsv1CiJIYr9o7iqg_-237" value="+ pago: Boolean" style="text;align=left;verticalAlign=top;spacingLeft=4;spacingRight=4;overflow=hidden;rotatable=0;points=[[0,0.5],[1,0.5]];portConstraint=eastwest;whiteSpace=wrap;html=1;fillColor=#f8cecc;strokeColor=#b85450;" vertex="1" parent="RezQsv1CiJIYr9o7iqg_-191">
          <mxGeometry y="78" width="260" height="26" as="geometry" />
        </mxCell>
        <mxCell id="RezQsv1CiJIYr9o7iqg_-192" value="+ observacoesServico: String" style="text;align=left;verticalAlign=top;spacingLeft=4;spacingRight=4;overflow=hidden;rotatable=0;points=[[0,0.5],[1,0.5]];portConstraint=eastwest;whiteSpace=wrap;html=1;fillColor=#f8cecc;strokeColor=#b85450;" vertex="1" parent="RezQsv1CiJIYr9o7iqg_-191">
          <mxGeometry y="104" width="260" height="26" as="geometry" />
        </mxCell>
        <mxCell id="RezQsv1CiJIYr9o7iqg_-231" style="edgeStyle=orthogonalEdgeStyle;rounded=0;orthogonalLoop=1;jettySize=auto;html=1;exitX=1;exitY=1;exitDx=0;exitDy=0;entryX=0;entryY=0;entryDx=0;entryDy=0;endArrow=none;endFill=0;" edge="1" parent="RezQsv1CiJIYr9o7iqg_-130" source="RezQsv1CiJIYr9o7iqg_-203" target="RezQsv1CiJIYr9o7iqg_-191">
          <mxGeometry relative="1" as="geometry">
            <Array as="points">
              <mxPoint x="436" y="621.5" />
            </Array>
          </mxGeometry>
        </mxCell>
        <mxCell id="RezQsv1CiJIYr9o7iqg_-240" value="1:*" style="edgeLabel;html=1;align=center;verticalAlign=middle;resizable=0;points=[];" vertex="1" connectable="0" parent="RezQsv1CiJIYr9o7iqg_-231">
          <mxGeometry x="-0.1735" y="2" relative="1" as="geometry">
            <mxPoint x="22" y="17" as="offset" />
          </mxGeometry>
        </mxCell>
        <mxCell id="RezQsv1CiJIYr9o7iqg_-229" style="edgeStyle=orthogonalEdgeStyle;rounded=0;orthogonalLoop=1;jettySize=auto;html=1;exitX=0;exitY=1;exitDx=0;exitDy=0;entryX=1;entryY=0;entryDx=0;entryDy=0;endArrow=none;endFill=0;" edge="1" parent="RezQsv1CiJIYr9o7iqg_-130" source="RezQsv1CiJIYr9o7iqg_-200" target="RezQsv1CiJIYr9o7iqg_-191">
          <mxGeometry relative="1" as="geometry">
            <Array as="points">
              <mxPoint x="810" y="622" />
            </Array>
          </mxGeometry>
        </mxCell>
        <mxCell id="RezQsv1CiJIYr9o7iqg_-242" value="*:1" style="edgeLabel;html=1;align=center;verticalAlign=middle;resizable=0;points=[];" vertex="1" connectable="0" parent="RezQsv1CiJIYr9o7iqg_-229">
          <mxGeometry x="-0.4925" y="2" relative="1" as="geometry">
            <mxPoint x="-32" y="26" as="offset" />
          </mxGeometry>
        </mxCell>
        <mxCell id="RezQsv1CiJIYr9o7iqg_-232" style="edgeStyle=orthogonalEdgeStyle;rounded=0;orthogonalLoop=1;jettySize=auto;html=1;exitX=0.5;exitY=1;exitDx=0;exitDy=0;entryX=0.5;entryY=0;entryDx=0;entryDy=0;endArrow=none;endFill=0;" edge="1" parent="RezQsv1CiJIYr9o7iqg_-130" source="RezQsv1CiJIYr9o7iqg_-191" target="RezQsv1CiJIYr9o7iqg_-197">
          <mxGeometry relative="1" as="geometry" />
        </mxCell>
        <mxCell id="RezQsv1CiJIYr9o7iqg_-247" style="edgeStyle=orthogonalEdgeStyle;rounded=0;orthogonalLoop=1;jettySize=auto;html=1;exitX=0.5;exitY=1;exitDx=0;exitDy=0;exitPerimeter=0;" edge="1" parent="1" source="RezQsv1CiJIYr9o7iqg_-188" target="RezQsv1CiJIYr9o7iqg_-226">
          <mxGeometry relative="1" as="geometry" />
        </mxCell>
        <mxCell id="RezQsv1CiJIYr9o7iqg_-188" value="Infrastructure" style="shape=folder;fontStyle=1;spacingTop=10;tabWidth=40;tabHeight=14;tabPosition=left;html=1;whiteSpace=wrap;verticalAlign=top;" vertex="1" parent="1">
          <mxGeometry x="2875" y="750" width="250" height="210" as="geometry" />
        </mxCell>
        <mxCell id="RezQsv1CiJIYr9o7iqg_-245" style="edgeStyle=orthogonalEdgeStyle;rounded=0;orthogonalLoop=1;jettySize=auto;html=1;exitX=0.5;exitY=1;exitDx=0;exitDy=0;exitPerimeter=0;" edge="1" parent="1" source="RezQsv1CiJIYr9o7iqg_-189" target="RezQsv1CiJIYr9o7iqg_-188">
          <mxGeometry relative="1" as="geometry" />
        </mxCell>
        <mxCell id="RezQsv1CiJIYr9o7iqg_-189" value="UseCases" style="shape=folder;fontStyle=1;spacingTop=10;tabWidth=40;tabHeight=14;tabPosition=left;html=1;whiteSpace=wrap;verticalAlign=top;" vertex="1" parent="1">
          <mxGeometry x="2940" y="620" width="120" height="50" as="geometry" />
        </mxCell>
        <mxCell id="RezQsv1CiJIYr9o7iqg_-246" style="edgeStyle=orthogonalEdgeStyle;rounded=0;orthogonalLoop=1;jettySize=auto;html=1;exitX=0.5;exitY=1;exitDx=0;exitDy=0;exitPerimeter=0;" edge="1" parent="1" source="RezQsv1CiJIYr9o7iqg_-190" target="RezQsv1CiJIYr9o7iqg_-189">
          <mxGeometry relative="1" as="geometry" />
        </mxCell>
        <mxCell id="RezQsv1CiJIYr9o7iqg_-190" value="View" style="shape=folder;fontStyle=1;spacingTop=10;tabWidth=40;tabHeight=14;tabPosition=left;html=1;whiteSpace=wrap;verticalAlign=top;" vertex="1" parent="1">
          <mxGeometry x="2890" y="350" width="220" height="190" as="geometry" />
        </mxCell>
        <mxCell id="RezQsv1CiJIYr9o7iqg_-228" style="edgeStyle=orthogonalEdgeStyle;rounded=0;orthogonalLoop=1;jettySize=auto;html=1;exitX=0;exitY=1;exitDx=0;exitDy=0;entryX=1;entryY=0;entryDx=0;entryDy=0;endArrow=none;endFill=0;" edge="1" parent="1" source="RezQsv1CiJIYr9o7iqg_-191" target="zKRFpH8LsfMyVIRQmf_E-71">
          <mxGeometry relative="1" as="geometry">
            <Array as="points">
              <mxPoint x="3981" y="1630" />
              <mxPoint x="3910" y="1630" />
              <mxPoint x="3910" y="1870" />
              <mxPoint x="2270" y="1870" />
              <mxPoint x="2270" y="1768" />
            </Array>
          </mxGeometry>
        </mxCell>
        <mxCell id="RezQsv1CiJIYr9o7iqg_-243" value="*:*" style="edgeLabel;html=1;align=center;verticalAlign=middle;resizable=0;points=[];" vertex="1" connectable="0" parent="RezQsv1CiJIYr9o7iqg_-228">
          <mxGeometry x="0.0929" y="1" relative="1" as="geometry">
            <mxPoint x="-1" as="offset" />
          </mxGeometry>
        </mxCell>
        <mxCell id="RezQsv1CiJIYr9o7iqg_-213" value="Users" style="shape=folder;fontStyle=1;spacingTop=10;tabWidth=40;tabHeight=14;tabPosition=left;html=1;whiteSpace=wrap;verticalAlign=top;" vertex="1" parent="1">
          <mxGeometry x="2860" y="1139" width="280" height="440" as="geometry" />
        </mxCell>
        <mxCell id="RezQsv1CiJIYr9o7iqg_-224" style="edgeStyle=orthogonalEdgeStyle;rounded=0;orthogonalLoop=1;jettySize=auto;html=1;exitX=0.5;exitY=1;exitDx=0;exitDy=0;entryX=0.5;entryY=0;entryDx=0;entryDy=0;startArrow=block;startFill=0;endArrow=none;endFill=0;" edge="1" parent="1" source="RezQsv1CiJIYr9o7iqg_-217" target="RezQsv1CiJIYr9o7iqg_-214">
          <mxGeometry relative="1" as="geometry" />
        </mxCell>
        <mxCell id="zKRFpH8LsfMyVIRQmf_E-32" style="edgeStyle=orthogonalEdgeStyle;rounded=0;orthogonalLoop=1;jettySize=auto;html=1;exitX=0.5;exitY=1;exitDx=0;exitDy=0;entryX=0.5;entryY=0;entryDx=0;entryDy=0;endArrow=none;endFill=0;startArrow=block;startFill=0;fillColor=#ffe6cc;strokeColor=#d79b00;" parent="1" source="RezQsv1CiJIYr9o7iqg_-214" target="zKRFpH8LsfMyVIRQmf_E-22" edge="1">
          <mxGeometry relative="1" as="geometry">
            <mxPoint x="2995" y="2062" as="sourcePoint" />
            <Array as="points">
              <mxPoint x="3005" y="1830" />
              <mxPoint x="2420" y="1830" />
              <mxPoint x="2420" y="1480" />
              <mxPoint x="1625" y="1480" />
            </Array>
          </mxGeometry>
        </mxCell>
        <mxCell id="RezQsv1CiJIYr9o7iqg_-225" style="edgeStyle=orthogonalEdgeStyle;rounded=0;orthogonalLoop=1;jettySize=auto;html=1;exitX=0.5;exitY=1;exitDx=0;exitDy=0;entryX=0.5;entryY=1;entryDx=0;entryDy=0;startArrow=block;startFill=0;endArrow=none;endFill=0;fillColor=#f8cecc;strokeColor=#b85450;" edge="1" parent="1" source="RezQsv1CiJIYr9o7iqg_-214" target="RezQsv1CiJIYr9o7iqg_-203">
          <mxGeometry relative="1" as="geometry">
            <Array as="points">
              <mxPoint x="3005" y="1830" />
              <mxPoint x="3840" y="1830" />
              <mxPoint x="3840" y="1434" />
            </Array>
          </mxGeometry>
        </mxCell>
        <mxCell id="RezQsv1CiJIYr9o7iqg_-217" value="Pessoa" style="swimlane;fontStyle=0;childLayout=stackLayout;horizontal=1;startSize=26;horizontalStack=0;resizeParent=1;resizeParentMax=0;resizeLast=0;collapsible=1;marginBottom=0;whiteSpace=wrap;html=1;" vertex="1" parent="1">
          <mxGeometry x="2920" y="1190" width="170" height="182" as="geometry">
            <mxRectangle x="2915" y="1460" width="80" height="30" as="alternateBounds" />
          </mxGeometry>
        </mxCell>
        <mxCell id="RezQsv1CiJIYr9o7iqg_-218" value="+ nome: String" style="text;align=left;verticalAlign=top;spacingLeft=4;spacingRight=4;overflow=hidden;rotatable=0;points=[[0,0.5],[1,0.5]];portConstraint=eastwest;whiteSpace=wrap;html=1;" vertex="1" parent="RezQsv1CiJIYr9o7iqg_-217">
          <mxGeometry y="26" width="170" height="26" as="geometry" />
        </mxCell>
        <mxCell id="RezQsv1CiJIYr9o7iqg_-219" value="+ rg: String" style="text;align=left;verticalAlign=top;spacingLeft=4;spacingRight=4;overflow=hidden;rotatable=0;points=[[0,0.5],[1,0.5]];portConstraint=eastwest;whiteSpace=wrap;html=1;" vertex="1" parent="RezQsv1CiJIYr9o7iqg_-217">
          <mxGeometry y="52" width="170" height="26" as="geometry" />
        </mxCell>
        <mxCell id="RezQsv1CiJIYr9o7iqg_-220" value="+ cpf: String" style="text;align=left;verticalAlign=top;spacingLeft=4;spacingRight=4;overflow=hidden;rotatable=0;points=[[0,0.5],[1,0.5]];portConstraint=eastwest;whiteSpace=wrap;html=1;" vertex="1" parent="RezQsv1CiJIYr9o7iqg_-217">
          <mxGeometry y="78" width="170" height="26" as="geometry" />
        </mxCell>
        <mxCell id="RezQsv1CiJIYr9o7iqg_-221" value="+ dataNascimento: Date" style="text;align=left;verticalAlign=top;spacingLeft=4;spacingRight=4;overflow=hidden;rotatable=0;points=[[0,0.5],[1,0.5]];portConstraint=eastwest;whiteSpace=wrap;html=1;" vertex="1" parent="RezQsv1CiJIYr9o7iqg_-217">
          <mxGeometry y="104" width="170" height="26" as="geometry" />
        </mxCell>
        <mxCell id="RezQsv1CiJIYr9o7iqg_-222" value="+ telefone: String" style="text;align=left;verticalAlign=top;spacingLeft=4;spacingRight=4;overflow=hidden;rotatable=0;points=[[0,0.5],[1,0.5]];portConstraint=eastwest;whiteSpace=wrap;html=1;" vertex="1" parent="RezQsv1CiJIYr9o7iqg_-217">
          <mxGeometry y="130" width="170" height="26" as="geometry" />
        </mxCell>
        <mxCell id="RezQsv1CiJIYr9o7iqg_-223" value="+ endereco: String" style="text;align=left;verticalAlign=top;spacingLeft=4;spacingRight=4;overflow=hidden;rotatable=0;points=[[0,0.5],[1,0.5]];portConstraint=eastwest;whiteSpace=wrap;html=1;" vertex="1" parent="RezQsv1CiJIYr9o7iqg_-217">
          <mxGeometry y="156" width="170" height="26" as="geometry" />
        </mxCell>
        <mxCell id="RezQsv1CiJIYr9o7iqg_-214" value="Usuario" style="swimlane;fontStyle=0;childLayout=stackLayout;horizontal=1;startSize=26;horizontalStack=0;resizeParent=1;resizeParentMax=0;resizeLast=0;collapsible=1;marginBottom=0;whiteSpace=wrap;html=1;" vertex="1" parent="1">
          <mxGeometry x="2920" y="1432" width="170" height="78" as="geometry">
            <mxRectangle x="2920" y="1702" width="100" height="30" as="alternateBounds" />
          </mxGeometry>
        </mxCell>
        <mxCell id="RezQsv1CiJIYr9o7iqg_-215" value="+ email: String" style="text;align=left;verticalAlign=top;spacingLeft=4;spacingRight=4;overflow=hidden;rotatable=0;points=[[0,0.5],[1,0.5]];portConstraint=eastwest;whiteSpace=wrap;html=1;" vertex="1" parent="RezQsv1CiJIYr9o7iqg_-214">
          <mxGeometry y="26" width="170" height="26" as="geometry" />
        </mxCell>
        <mxCell id="RezQsv1CiJIYr9o7iqg_-216" value="+ senha: String" style="text;align=left;verticalAlign=top;spacingLeft=4;spacingRight=4;overflow=hidden;rotatable=0;points=[[0,0.5],[1,0.5]];portConstraint=eastwest;whiteSpace=wrap;html=1;" vertex="1" parent="RezQsv1CiJIYr9o7iqg_-214">
          <mxGeometry y="52" width="170" height="26" as="geometry" />
        </mxCell>
        <mxCell id="RezQsv1CiJIYr9o7iqg_-248" value="Pages" style="shape=folder;fontStyle=1;spacingTop=10;tabWidth=40;tabHeight=14;tabPosition=left;html=1;whiteSpace=wrap;verticalAlign=top;" vertex="1" parent="1">
          <mxGeometry x="2945" y="400" width="120" height="50" as="geometry" />
        </mxCell>
        <mxCell id="RezQsv1CiJIYr9o7iqg_-249" value="Controllers" style="shape=folder;fontStyle=1;spacingTop=10;tabWidth=40;tabHeight=14;tabPosition=left;html=1;whiteSpace=wrap;verticalAlign=top;" vertex="1" parent="1">
          <mxGeometry x="2945" y="470" width="120" height="50" as="geometry" />
        </mxCell>
        <mxCell id="RezQsv1CiJIYr9o7iqg_-250" value="Services" style="shape=folder;fontStyle=1;spacingTop=10;tabWidth=40;tabHeight=14;tabPosition=left;html=1;whiteSpace=wrap;verticalAlign=top;" vertex="1" parent="1">
          <mxGeometry x="2940" y="800" width="120" height="50" as="geometry" />
        </mxCell>
        <mxCell id="RezQsv1CiJIYr9o7iqg_-251" value="Repositories" style="shape=folder;fontStyle=1;spacingTop=10;tabWidth=40;tabHeight=14;tabPosition=left;html=1;whiteSpace=wrap;verticalAlign=top;" vertex="1" parent="1">
          <mxGeometry x="2940" y="880" width="120" height="50" as="geometry" />
        </mxCell>
      </root>
    </mxGraphModel>
  </diagram>
</mxfile>
